<svg width="48" height="48" viewBox="0 0 48 48" fill="none" xmlns="http://www.w3.org/2000/svg">
<rect width="48" height="48" rx="24" fill="#E2E8F0"/>
<path d="M23.4396 16.8062L18.2303 22.0154C18.0816 22.1641 18 22.3622 18 22.5736C18 22.7851 18.0817 22.9832 18.2303 23.1319L18.7034 23.6048C18.8518 23.7534 19.0502 23.8353 19.2616 23.8353C19.4729 23.8353 19.6779 23.7534 19.8264 23.6048L22.872 20.5659V30.2207C22.872 30.656 23.2128 31 23.6482 31H24.317C24.7524 31 25.1276 30.656 25.1276 30.2207V20.5314L28.1902 23.6047C28.3389 23.7533 28.5318 23.8352 28.7432 23.8352C28.9544 23.8352 29.1501 23.7533 29.2987 23.6047L29.7703 23.1318C29.919 22.9831 30 22.785 30 22.5734C30 22.3621 29.9179 22.1639 29.7692 22.0152L24.5601 16.8061C24.4109 16.6571 24.2118 16.5751 24.0001 16.5757C23.7877 16.5752 23.5885 16.6571 23.4396 16.8062Z" fill="#718096"/>
</svg>
