<svg width="19" height="19" viewBox="0 0 19 19" fill="none" xmlns="http://www.w3.org/2000/svg">
<path d="M0.0426598 0.501446C0.180045 0.11068 0.608196 -0.0947255 0.998963 0.0426598L1.30036 0.148624C1.91689 0.365356 2.44052 0.549432 2.85261 0.751632C3.29324 0.967836 3.67109 1.23417 3.95527 1.65003C4.23725 2.06268 4.35367 2.51539 4.4074 3.01177C4.43145 3.23397 4.44414 3.47991 4.45083 3.75024H15.089C16.774 3.75024 18.2908 3.75024 18.7347 4.32733C19.1786 4.90441 19.0051 5.77394 18.658 7.513L18.1582 9.93771C17.8431 11.4666 17.6855 12.231 17.1338 12.6806C16.5821 13.1302 15.8016 13.1302 14.2406 13.1302H8.93768C6.14878 13.1302 4.75432 13.1302 3.88792 12.2164C3.02152 11.3026 2.95828 10.3318 2.95828 7.39024L2.95828 4.78856C2.95828 4.04862 2.95726 3.5534 2.91611 3.17319C2.87678 2.80984 2.80708 2.62842 2.71682 2.49634C2.62876 2.36747 2.49509 2.24704 2.19186 2.09826C1.86902 1.93985 1.43026 1.7843 0.762655 1.54958L0.501446 1.45775C0.11068 1.32036 -0.0947255 0.892212 0.0426598 0.501446Z" fill="white"/>
<path d="M5.4585 15.7502C6.28692 15.7502 6.9585 16.4218 6.9585 17.2502C6.9585 18.0787 6.28692 18.7502 5.4585 18.7502C4.63007 18.7502 3.9585 18.0787 3.9585 17.2502C3.9585 16.4218 4.63007 15.7502 5.4585 15.7502Z" fill="white"/>
<path d="M14.4585 15.7503C15.2869 15.7503 15.9585 16.4219 15.9585 17.2503C15.9585 18.0787 15.2869 18.7503 14.4585 18.7503C13.6301 18.7503 12.9585 18.0787 12.9585 17.2503C12.9585 16.4219 13.6301 15.7503 14.4585 15.7503Z" fill="white"/>
</svg>
