<svg width="60" height="60" viewBox="0 0 60 60" fill="none" xmlns="http://www.w3.org/2000/svg">
<circle cx="30" cy="30" r="30" fill="#2FB388"/>
<path d="M29.9981 10.0039C19.1901 9.79079 10.2468 18.3615 10 29.1687C10.0282 34.6699 12.4641 39.883 16.666 43.4339V49.1667C16.666 49.6269 17.0391 50 17.4993 50C17.6554 50 17.8085 49.9561 17.9409 49.8734L22.5854 46.972C24.9517 47.8771 27.4646 48.3386 29.9981 48.3335C40.806 48.5466 49.7493 39.9759 49.9961 29.1687C49.7493 18.3615 40.806 9.79079 29.9981 10.0039Z" fill="white"/>
<path d="M43.1643 23.669C42.9163 23.3367 42.4618 23.2372 42.0977 23.4357L33.4319 28.1602L28.0408 23.5373C27.7102 23.2539 27.2171 23.2727 26.9093 23.5806L16.9103 33.5797C16.5858 33.906 16.5874 34.4337 16.9138 34.7581C17.1748 35.0175 17.575 35.075 17.8985 34.8995L26.5643 30.175L31.9604 34.7996C32.291 35.083 32.7841 35.0641 33.092 34.7562L43.091 24.7572C43.3824 24.4631 43.4136 23.9996 43.1643 23.669Z" fill="#2FB388"/>
</svg>
