<svg width="36" height="36" viewBox="0 0 36 36" fill="none" xmlns="http://www.w3.org/2000/svg">
<g clip-path="url(#clip0_1_23079)">
<path d="M18 36C27.9411 36 36 27.9411 36 18C36 8.05887 27.9411 0 18 0C8.05887 0 0 8.05887 0 18C0 27.9411 8.05887 36 18 36Z" fill="#3A559F"/>
<path d="M23.7026 15.8686L23.3405 19.0043C23.3255 19.1474 23.2585 19.28 23.1521 19.3769C23.0458 19.4738 22.9076 19.5283 22.7637 19.53H19.491L19.4746 28.8266C19.4757 28.9368 19.4334 29.0429 19.3569 29.1222C19.2803 29.2014 19.1757 29.2473 19.0655 29.25H15.7498C15.6947 29.25 15.6401 29.2389 15.5894 29.2174C15.5387 29.1958 15.4928 29.1642 15.4546 29.1245C15.4164 29.0847 15.3866 29.0377 15.3671 28.9861C15.3475 28.9346 15.3385 28.8796 15.3408 28.8245V19.53H12.8862C12.8091 19.5292 12.7329 19.5132 12.662 19.483C12.5911 19.4527 12.5268 19.4088 12.4729 19.3537C12.4189 19.2986 12.3764 19.2335 12.3476 19.1619C12.3189 19.0904 12.3045 19.0139 12.3053 18.9368L12.293 15.8011C12.2919 15.7238 12.3061 15.647 12.3347 15.5751C12.3633 15.5032 12.4058 15.4376 12.4598 15.3822C12.5137 15.3267 12.5781 15.2824 12.6491 15.2518C12.7202 15.2212 12.7966 15.2049 12.8739 15.2039H15.3408V12.1766C15.3408 8.6625 17.4271 6.75 20.4871 6.75H22.9948C23.0724 6.7508 23.149 6.7669 23.2203 6.79738C23.2916 6.82785 23.3562 6.8721 23.4103 6.92759C23.4645 6.98308 23.5072 7.04872 23.5359 7.12074C23.5646 7.19276 23.5789 7.26974 23.5778 7.34727V9.98591C23.5789 10.0634 23.5646 10.1404 23.5359 10.2124C23.5072 10.2845 23.4645 10.3501 23.4103 10.4056C23.3562 10.4611 23.2916 10.5053 23.2203 10.5358C23.149 10.5663 23.0724 10.5824 22.9948 10.5832H21.4567C19.7937 10.5832 19.4705 11.4014 19.4705 12.5836V15.2039H23.1258C23.2089 15.2049 23.2908 15.2235 23.3663 15.2585C23.4417 15.2935 23.5088 15.344 23.5633 15.4068C23.6178 15.4696 23.6584 15.5432 23.6824 15.6228C23.7064 15.7024 23.7133 15.7862 23.7026 15.8686Z" fill="white"/>
</g>
<defs>
<clipPath id="clip0_1_23079">
<rect width="36" height="36" fill="white"/>
</clipPath>
</defs>
</svg>
