<svg width="36" height="36" viewBox="0 0 36 36" fill="none" xmlns="http://www.w3.org/2000/svg">
<g clip-path="url(#clip0_1_23089)">
<path d="M18 0C27.9 0 36 8.1 36 18C36 27.9 27.9 36 18 36C8.1 36 0 27.8999 0 18C0 8.10012 8.1 0 18 0Z" fill="#DD4B39"/>
<path d="M27.1122 14.9617V16.9867H29.1371V19.0117H27.1122V21.0368H25.0871V19.0117H23.0621V16.9867H25.0871V14.9617H27.1122ZM8.88714 23.0617C6.18713 20.3617 6.18714 15.6366 8.99959 12.9368C11.0246 10.9117 13.9495 10.4618 16.5371 11.4743L17.5495 12.0368L18.6746 12.8243L16.8746 14.6243L16.1996 14.1744C14.6246 13.1619 12.3746 13.3868 10.9122 14.8493C9.22462 16.5369 9.11217 19.5744 10.9122 21.3744C12.5997 23.1744 15.6372 23.1744 17.2122 21.3744C17.6621 20.9244 18.1122 20.2493 18.2246 19.5744V19.3493H14.1747V17.0994H20.5871L20.6996 17.6619V19.2369C20.5871 20.6994 20.0246 22.1619 19.012 23.1744C16.3122 25.7617 11.5871 25.7617 8.88714 23.0617Z" fill="white"/>
</g>
<defs>
<clipPath id="clip0_1_23089">
<rect width="36" height="36" fill="white"/>
</clipPath>
</defs>
</svg>
