<svg width="36" height="36" viewBox="0 0 36 36" fill="none" xmlns="http://www.w3.org/2000/svg">
<path d="M28.5 4.5H4.5C3.25736 4.5 2.25 5.50736 2.25 6.75V26.25C2.25 27.4926 3.25736 28.5 4.5 28.5H28.5C29.7426 28.5 30.75 27.4926 30.75 26.25V6.75C30.75 5.50736 29.7426 4.5 28.5 4.5Z" fill="#F9F6F6"/>
<path d="M7.5 7.5C7.30109 7.5 7.11032 7.42098 6.96967 7.28033C6.82902 7.13968 6.75 6.94891 6.75 6.75V3C6.75 2.80109 6.82902 2.61032 6.96967 2.46967C7.11032 2.32902 7.30109 2.25 7.5 2.25C7.69891 2.25 7.88968 2.32902 8.03033 2.46967C8.17098 2.61032 8.25 2.80109 8.25 3V6.75C8.25 6.94891 8.17098 7.13968 8.03033 7.28033C7.88968 7.42098 7.69891 7.5 7.5 7.5ZM12 7.5C11.8011 7.5 11.6103 7.42098 11.4697 7.28033C11.329 7.13968 11.25 6.94891 11.25 6.75V3C11.25 2.80109 11.329 2.61032 11.4697 2.46967C11.6103 2.32902 11.8011 2.25 12 2.25C12.1989 2.25 12.3897 2.32902 12.5303 2.46967C12.671 2.61032 12.75 2.80109 12.75 3V6.75C12.75 6.94891 12.671 7.13968 12.5303 7.28033C12.3897 7.42098 12.1989 7.5 12 7.5ZM16.5 7.5C16.3011 7.5 16.1103 7.42098 15.9697 7.28033C15.829 7.13968 15.75 6.94891 15.75 6.75V3C15.75 2.80109 15.829 2.61032 15.9697 2.46967C16.1103 2.32902 16.3011 2.25 16.5 2.25C16.6989 2.25 16.8897 2.32902 17.0303 2.46967C17.171 2.61032 17.25 2.80109 17.25 3V6.75C17.25 6.94891 17.171 7.13968 17.0303 7.28033C16.8897 7.42098 16.6989 7.5 16.5 7.5ZM21 7.5C20.8011 7.5 20.6103 7.42098 20.4697 7.28033C20.329 7.13968 20.25 6.94891 20.25 6.75V3C20.25 2.80109 20.329 2.61032 20.4697 2.46967C20.6103 2.32902 20.8011 2.25 21 2.25C21.1989 2.25 21.3897 2.32902 21.5303 2.46967C21.671 2.61032 21.75 2.80109 21.75 3V6.75C21.75 6.94891 21.671 7.13968 21.5303 7.28033C21.3897 7.42098 21.1989 7.5 21 7.5ZM25.5 7.5C25.3011 7.5 25.1103 7.42098 24.9697 7.28033C24.829 7.13968 24.75 6.94891 24.75 6.75V3C24.75 2.80109 24.829 2.61032 24.9697 2.46967C25.1103 2.32902 25.3011 2.25 25.5 2.25C25.6989 2.25 25.8897 2.32902 26.0303 2.46967C26.171 2.61032 26.25 2.80109 26.25 3V6.75C26.25 6.94891 26.171 7.13968 26.0303 7.28033C25.8897 7.42098 25.6989 7.5 25.5 7.5Z" fill="#3580DB"/>
<path d="M10.875 13.5H7.125C6.71079 13.5 6.375 13.8358 6.375 14.25V18C6.375 18.4142 6.71079 18.75 7.125 18.75H10.875C11.2892 18.75 11.625 18.4142 11.625 18V14.25C11.625 13.8358 11.2892 13.5 10.875 13.5Z" fill="#8B7DDE"/>
<path d="M18.375 13.5H14.625C14.2108 13.5 13.875 13.8358 13.875 14.25V18C13.875 18.4142 14.2108 18.75 14.625 18.75H18.375C18.7892 18.75 19.125 18.4142 19.125 18V14.25C19.125 13.8358 18.7892 13.5 18.375 13.5Z" fill="#8B7DDE"/>
<path d="M25.875 13.5H22.125C21.7108 13.5 21.375 13.8358 21.375 14.25V18C21.375 18.4142 21.7108 18.75 22.125 18.75H25.875C26.2892 18.75 26.625 18.4142 26.625 18V14.25C26.625 13.8358 26.2892 13.5 25.875 13.5Z" fill="#8B7DDE"/>
<path d="M10.875 20.25H7.125C6.71079 20.25 6.375 20.5858 6.375 21V24.75C6.375 25.1642 6.71079 25.5 7.125 25.5H10.875C11.2892 25.5 11.625 25.1642 11.625 24.75V21C11.625 20.5858 11.2892 20.25 10.875 20.25Z" fill="#8B7DDE"/>
<path d="M18.375 20.25H14.625C14.2108 20.25 13.875 20.5858 13.875 21V24.75C13.875 25.1642 14.2108 25.5 14.625 25.5H18.375C18.7892 25.5 19.125 25.1642 19.125 24.75V21C19.125 20.5858 18.7892 20.25 18.375 20.25Z" fill="#8B7DDE"/>
<path d="M25.875 20.25H22.125C21.7108 20.25 21.375 20.5858 21.375 21V24.75C21.375 25.1642 21.7108 25.5 22.125 25.5H25.875C26.2892 25.5 26.625 25.1642 26.625 24.75V21C26.625 20.5858 26.2892 20.25 25.875 20.25Z" fill="#8B7DDE"/>
<path d="M27 33.75C30.7279 33.75 33.75 30.7279 33.75 27C33.75 23.2721 30.7279 20.25 27 20.25C23.2721 20.25 20.25 23.2721 20.25 27C20.25 30.7279 23.2721 33.75 27 33.75Z" fill="#EA4C89"/>
<path d="M30.75 6.75V11.25H2.25V6.75C2.25 6.15326 2.48705 5.58097 2.90901 5.15901C3.33097 4.73705 3.90326 4.5 4.5 4.5H28.5C29.0967 4.5 29.669 4.73705 30.091 5.15901C30.5129 5.58097 30.75 6.15326 30.75 6.75Z" fill="#3580DB"/>
<path d="M28.5 29.25C28.4013 29.2506 28.3035 29.2317 28.2121 29.1943C28.1207 29.157 28.0376 29.102 27.9675 29.0325L26.4675 27.5325C26.398 27.4624 26.343 27.3793 26.3057 27.2879C26.2684 27.1966 26.2494 27.0987 26.25 27V24C26.25 23.8011 26.329 23.6103 26.4697 23.4697C26.6103 23.329 26.8011 23.25 27 23.25C27.1989 23.25 27.3897 23.329 27.5303 23.4697C27.671 23.6103 27.75 23.8011 27.75 24V26.6925L29.0325 27.9675C29.1028 28.0372 29.1586 28.1202 29.1967 28.2116C29.2348 28.303 29.2544 28.401 29.2544 28.5C29.2544 28.599 29.2348 28.697 29.1967 28.7884C29.1586 28.8798 29.1028 28.9628 29.0325 29.0325C28.9624 29.102 28.8793 29.157 28.7879 29.1943C28.6966 29.2317 28.5987 29.2506 28.5 29.25Z" fill="#F9F6F6"/>
</svg>
