<svg width="48" height="48" viewBox="0 0 48 48" fill="none" xmlns="http://www.w3.org/2000/svg">
<circle cx="24" cy="24" r="24" fill="#FEF4E2"/>
<g clip-path="url(#clip0_1_24664)">
<path d="M19.335 23.2786C18.2184 23.2786 17.1408 22.9538 16.2178 22.3392C15.9595 22.1672 15.7134 21.9722 15.487 21.7594C14.9639 21.2695 14.5369 20.6784 14.235 20.0297C13.6533 19.9969 13.1109 19.7555 12.6956 19.3416C12.247 18.8944 12 18.2986 12 17.6639V17.6588C12.0037 16.3941 12.9989 15.3548 14.2453 15.2784C15.1678 13.305 17.1717 12.0061 19.3763 12C19.3814 12 19.387 12 19.3922 12C21.6009 12 23.5978 13.2966 24.5039 15.2742C24.9947 15.3511 25.448 15.5798 25.807 15.9375C26.2556 16.3847 26.5031 16.9805 26.5031 17.6147V17.6198C26.4994 18.8039 25.6275 19.7897 24.4936 19.9739C24.1739 20.6653 23.7141 21.2925 23.1459 21.8072C22.9195 22.0125 22.6748 22.2005 22.4189 22.3664C21.5039 22.9598 20.4431 23.2753 19.3509 23.2781C19.3453 23.2786 19.3402 23.2786 19.335 23.2786ZM15.2006 18.6248L15.3684 19.0917C15.5916 19.7128 15.9652 20.2805 16.4494 20.7338C16.6195 20.8936 16.8033 21.0394 16.9969 21.1683C17.692 21.6314 18.5053 21.8728 19.3467 21.8723C20.168 21.87 20.9653 21.6328 21.6534 21.1866C21.8466 21.0614 22.0308 20.9194 22.2014 20.7652C22.7166 20.2983 23.1136 19.7091 23.3498 19.0612L23.5177 18.6009L24.112 18.5981C24.6539 18.5962 25.095 18.1566 25.0969 17.6175V17.6147C25.0969 17.3569 24.9966 17.115 24.8142 16.9331C24.6319 16.7512 24.3891 16.6514 24.1303 16.6514C24.1294 16.6514 24.1284 16.6514 24.127 16.6514H23.5256L23.3583 16.1859C22.7606 14.5223 21.1678 13.4062 19.3922 13.4062C19.388 13.4062 19.3842 13.4062 19.38 13.4062C17.5964 13.4114 15.9877 14.5411 15.3769 16.2169L15.2091 16.6777L14.3897 16.68C13.8492 16.6819 13.4077 17.1216 13.4062 17.6606V17.6634C13.4062 17.9212 13.5066 18.1636 13.6884 18.345C13.8708 18.5269 14.1136 18.6267 14.3723 18.6267C14.3733 18.6267 14.3742 18.6267 14.3756 18.6267L15.2006 18.6248Z" fill="#F68E28"/>
<path d="M20.9818 35.9998H17.5636C14.7675 35.9998 12.4932 33.7287 12.4932 30.9368V25.3062C12.4932 24.2684 12.8054 23.2709 13.3964 22.421C13.9735 21.5918 14.7741 20.9595 15.7121 20.592L16.1264 20.4298L16.4504 20.7349C16.6177 20.8924 16.8014 21.0382 16.9969 21.1685C17.6883 21.6288 18.4964 21.8721 19.3346 21.8721C19.3388 21.8721 19.3425 21.8721 19.3463 21.8721C20.1675 21.8698 20.9649 21.6326 21.653 21.1863C21.8461 21.0612 22.0304 20.9191 22.201 20.7649L22.5324 20.4645L22.9449 20.6374C24.8321 21.4287 26.0518 23.2615 26.0518 25.3057V30.9368C26.0522 33.7287 23.7774 35.9998 20.9818 35.9998ZM15.8504 22.0723C14.6532 22.7004 13.8994 23.9295 13.8994 25.3062V30.9373C13.8994 32.9534 15.5433 34.594 17.5636 34.594H20.9818C23.0021 34.594 24.646 32.9538 24.646 30.9373V25.3062C24.646 23.9693 23.9236 22.7576 22.7743 22.1163C22.6589 22.2045 22.5399 22.2884 22.4185 22.3666C21.5035 22.9601 20.4427 23.2755 19.3505 23.2784C19.3454 23.2784 19.3397 23.2784 19.3346 23.2784C18.218 23.2784 17.1404 22.9535 16.2174 22.339C16.0913 22.2546 15.9689 22.1655 15.8504 22.0723ZM20.9864 16.5921C20.2711 16.5921 19.6941 16.3779 19.2713 15.9551C18.7941 15.4779 18.5536 14.7668 18.5564 13.8415L18.5625 12.8027L19.9688 12.8107L19.9632 13.8476C19.9618 14.3754 20.0663 14.7607 20.266 14.9609C20.4183 15.1132 20.656 15.1849 20.993 15.1859L20.9972 16.5921C20.9935 16.5921 20.9902 16.5921 20.9864 16.5921Z" fill="#F68E28"/>
<path d="M25.4203 28.1232C24.0187 28.1232 22.6673 27.7046 21.5128 26.9129C20.3578 26.1207 19.4827 25.0126 18.9825 23.7076L18.6155 22.7495L19.9284 22.2465L20.2955 23.2046C21.1008 25.3055 23.16 26.717 25.4198 26.717V28.1232H25.4203ZM25.8023 25.5882L24.8091 24.593L26.8641 22.5418L26.4094 22.088L26.9377 19.8493L30.4575 16.336L31.7695 17.6457L33.2269 16.1907L32.5167 15.4815L33.5105 14.4863L35.9273 16.899L34.9336 17.8941L34.222 17.1835L32.7647 18.6385L34.147 20.0185L30.6112 23.5477L28.29 23.9649L27.8597 23.5351L25.8023 25.5882ZM27.9581 21.647L28.7634 22.4509L29.9292 22.2413L32.1562 20.0185L30.4575 18.3226L28.2145 20.5613L27.9581 21.647ZM19.2722 20.7999C18.0923 20.7999 17.1328 19.8413 17.1328 18.6634H18.5391C18.5391 19.066 18.8681 19.3937 19.2722 19.3937C19.6762 19.3937 20.0053 19.066 20.0053 18.6634H21.4116C21.4116 19.8413 20.4516 20.7999 19.2722 20.7999Z" fill="#F68E28"/>
</g>
<defs>
<clipPath id="clip0_1_24664">
<rect width="24" height="24" fill="white" transform="translate(12 12)"/>
</clipPath>
</defs>
</svg>
