<svg width="48" height="48" viewBox="0 0 48 48" fill="none" xmlns="http://www.w3.org/2000/svg">
<circle cx="24" cy="24" r="24" fill="#DCF4ED"/>
<g clip-path="url(#clip0_1_24727)">
<path d="M25.0999 13C22.6816 13.0118 20.3356 13.8254 18.4293 15.3135C16.523 16.8015 15.1643 18.8799 14.5659 21.223L13.8339 20.116C13.7646 20.0001 13.6725 19.8994 13.5633 19.8201C13.454 19.7407 13.3298 19.6843 13.1982 19.6543C13.0665 19.6242 12.9301 19.6211 12.7973 19.6452C12.6644 19.6693 12.5378 19.72 12.4251 19.7944C12.3123 19.8687 12.2158 19.9651 12.1414 20.0778C12.0669 20.1904 12.016 20.317 11.9918 20.4498C11.9676 20.5827 11.9705 20.719 12.0004 20.8507C12.0303 20.9824 12.0866 21.1067 12.1659 21.216L14.3659 24.55C14.5187 24.7638 14.744 24.9149 14.9999 24.975C15.2611 25.0268 15.5323 24.9748 15.7559 24.83L19.0559 22.607C19.1696 22.5359 19.268 22.4427 19.345 22.3329C19.422 22.2231 19.4761 22.0989 19.5041 21.9677C19.5321 21.8365 19.5335 21.701 19.5081 21.5693C19.4826 21.4376 19.431 21.3123 19.3561 21.201C19.2813 21.0897 19.1849 20.9945 19.0725 20.9212C18.9601 20.8479 18.8342 20.798 18.7021 20.7744C18.5701 20.7508 18.4346 20.754 18.3039 20.7838C18.1731 20.8137 18.0496 20.8695 17.9409 20.948L16.4399 21.96C16.8393 20.3384 17.6866 18.8617 18.8849 17.6985C20.0833 16.5352 21.5845 15.7322 23.2173 15.3811C24.85 15.03 26.5486 15.1449 28.1192 15.7127C29.6898 16.2805 31.0692 17.2784 32.1 18.5924C33.1307 19.9065 33.7714 21.4838 33.9488 23.1445C34.1263 24.8051 33.8333 26.4822 33.1035 27.9843C32.3736 29.4865 31.2362 30.7533 29.8211 31.6401C28.4059 32.527 26.77 32.9982 25.0999 33C23.6682 32.9961 22.2586 32.6466 20.991 31.9812C19.7234 31.3158 18.6352 30.3542 17.8189 29.178C17.7458 29.0657 17.6508 28.9693 17.5397 28.8944C17.4286 28.8196 17.3036 28.7678 17.1721 28.7422C17.0406 28.7166 16.9053 28.7176 16.7743 28.7453C16.6432 28.773 16.519 28.8267 16.4091 28.9033C16.2992 28.9799 16.2058 29.0778 16.1345 29.1912C16.0631 29.3046 16.0153 29.4312 15.9938 29.5634C15.9723 29.6956 15.9777 29.8308 16.0094 29.961C16.0412 30.0911 16.0988 30.2136 16.1789 30.321C17.5059 32.2342 19.4117 33.6712 21.6161 34.4209C23.8204 35.1706 26.2072 35.1934 28.4255 34.4859C30.6438 33.7785 32.5767 32.3782 33.94 30.4907C35.3034 28.6033 36.0254 26.3282 35.9999 24C36.0097 21.0969 34.8677 18.3084 32.8243 16.2463C30.7808 14.1841 28.0029 13.0167 25.0999 13Z" fill="#0CA575"/>
<path d="M25 17.9502C24.7348 17.9502 24.4804 18.0556 24.2929 18.2431C24.1054 18.4306 24 18.685 24 18.9502V24.0002C24.0043 24.2645 24.109 24.5173 24.293 24.7072L27.293 27.7342C27.4813 27.9195 27.7344 28.0239 27.9986 28.0252C28.2627 28.0265 28.5169 27.9246 28.707 27.7412C28.8953 27.5545 29.0017 27.3006 29.0028 27.0354C29.0039 26.7703 28.8997 26.5155 28.713 26.3272L26 23.5892V18.9502C26 18.685 25.8946 18.4306 25.7071 18.2431C25.5196 18.0556 25.2652 17.9502 25 17.9502Z" fill="#0CA575"/>
</g>
<defs>
<clipPath id="clip0_1_24727">
<rect width="24" height="24" fill="white" transform="translate(12 12)"/>
</clipPath>
</defs>
</svg>
