<svg width="40" height="40" viewBox="0 0 40 40" fill="none" xmlns="http://www.w3.org/2000/svg">
<circle opacity="0.1" cx="20" cy="20" r="20" fill="white"/>
<circle cx="20" cy="20" r="16" fill="white"/>
<path fill-rule="evenodd" clip-rule="evenodd" d="M14.333 18.8782C14.333 15.8116 16.8956 13.333 19.9953 13.333C23.1038 13.333 25.6663 15.8116 25.6663 18.8782C25.6663 20.4235 25.1043 21.8581 24.1793 23.0741C23.1589 24.4154 21.9011 25.584 20.4854 26.5013C20.1613 26.7133 19.8689 26.7293 19.5133 26.5013C18.0895 25.584 16.8317 24.4154 15.82 23.0741C14.8943 21.8581 14.333 20.4235 14.333 18.8782ZM18.1292 19.0508C18.1292 20.0781 18.9674 20.8861 19.9953 20.8861C21.0238 20.8861 21.8702 20.0781 21.8702 19.0508C21.8702 18.0315 21.0238 17.1842 19.9953 17.1842C18.9674 17.1842 18.1292 18.0315 18.1292 19.0508Z" fill="#3580DB"/>
</svg>
