<svg width="48" height="48" viewBox="0 0 48 48" fill="none" xmlns="http://www.w3.org/2000/svg">
<circle cx="24" cy="24" r="24" fill="#DCF4ED"/>
<g clip-path="url(#clip0_1_24737)">
<mask id="mask0_1_24737" style="mask-type:luminance" maskUnits="userSpaceOnUse" x="12" y="12" width="32" height="32">
<path d="M43.9999 44H12V12.0001H43.9999V44Z" fill="white"/>
</mask>
<g mask="url(#mask0_1_24737)">
<path d="M30.7514 36H17.249C15.9271 36 14.8252 35.0088 14.6852 33.6944L13.4571 22.1525C13.4359 21.9544 13.5002 21.7563 13.6334 21.6082C13.7665 21.46 13.9565 21.375 14.1565 21.375H33.8439C34.0433 21.375 34.2333 21.4594 34.3671 21.6082C34.5002 21.7563 34.5646 21.9544 34.5433 22.1525L33.3152 33.6944C33.1752 35.0088 32.0733 36 30.7514 36ZM14.9384 22.7813L16.0834 33.5456C16.1471 34.1431 16.6477 34.5938 17.2484 34.5938H30.7514C31.3521 34.5938 31.8533 34.1431 31.9164 33.5456L33.0614 22.7813H14.9384Z" fill="#0CA575"/>
<path d="M35.2968 22.7812H12.7031C12.315 22.7812 12 22.4663 12 22.0781V20.2031C12 19.04 12.9462 18.0938 14.1094 18.0938H33.8906C35.0537 18.0938 35.9999 19.04 35.9999 20.2031V22.0781C35.9999 22.4663 35.6849 22.7812 35.2968 22.7812ZM13.4062 21.375H34.5937V20.2031C34.5937 19.8156 34.2781 19.5 33.8906 19.5H14.1094C13.7219 19.5 13.4062 19.8156 13.4062 20.2031V21.375Z" fill="#0CA575"/>
<path d="M26.3437 16.2188H21.6562C20.7519 16.2188 20.0156 15.4825 20.0156 14.5781V13.6406C20.0156 12.7363 20.7519 12 21.6562 12H26.3437C27.2481 12 27.9844 12.7363 27.9844 13.6406V14.5781C27.9844 15.4825 27.2481 16.2188 26.3437 16.2188ZM21.6562 13.4063C21.5269 13.4063 21.4219 13.5113 21.4219 13.6406V14.5781C21.4219 14.7075 21.5269 14.8125 21.6562 14.8125H26.3437C26.4731 14.8125 26.5781 14.7075 26.5781 14.5781V13.6406C26.5781 13.5113 26.4731 13.4063 26.3437 13.4063H21.6562Z" fill="#0CA575"/>
<path d="M17.9062 19.5C17.5181 19.5 17.2031 19.185 17.2031 18.7969V15.9844C17.2031 14.5625 18.3594 13.4063 19.7812 13.4063H20.7187C21.1069 13.4063 21.4219 13.7213 21.4219 14.1094C21.4219 14.4975 21.1069 14.8125 20.7187 14.8125H19.7812C19.135 14.8125 18.6094 15.3381 18.6094 15.9844V18.7969C18.6094 19.185 18.2944 19.5 17.9062 19.5Z" fill="#0CA575"/>
<path d="M30.0937 19.5C29.7056 19.5 29.3906 19.185 29.3906 18.7969V15.9844C29.3906 15.3381 28.865 14.8125 28.2187 14.8125H27.2812C26.8931 14.8125 26.5781 14.4975 26.5781 14.1094C26.5781 13.7213 26.8931 13.4063 27.2812 13.4063H28.2187C29.6406 13.4063 30.7969 14.5625 30.7969 15.9844V18.7969C30.7969 19.185 30.4819 19.5 30.0937 19.5Z" fill="#0CA575"/>
<path d="M25.4062 25.5938H22.5937C21.4306 25.5938 20.4844 24.6475 20.4844 23.4844V22.0781C20.4844 21.69 20.7994 21.375 21.1875 21.375H26.8125C27.2006 21.375 27.5156 21.69 27.5156 22.0781V23.4844C27.5156 24.6475 26.5694 25.5938 25.4062 25.5938ZM21.8906 22.7813V23.4844C21.8906 23.8719 22.2062 24.1875 22.5937 24.1875H25.4062C25.7937 24.1875 26.1094 23.8719 26.1094 23.4844V22.7813H21.8906Z" fill="#0CA575"/>
<path d="M26.1094 30.6562H21.8906C21.5025 30.6562 21.1875 30.3413 21.1875 29.9531C21.1875 29.565 21.5025 29.25 21.8906 29.25H26.1094C26.4975 29.25 26.8125 29.565 26.8125 29.9531C26.8125 30.3413 26.4975 30.6562 26.1094 30.6562Z" fill="#0CA575"/>
<path d="M22.9444 32.4834C22.825 32.4834 22.7044 32.4528 22.5938 32.389C22.2575 32.1946 22.1425 31.7647 22.3363 31.4284L24.4456 27.7747C24.64 27.4384 25.07 27.3228 25.4063 27.5172C25.7425 27.7115 25.8575 28.1415 25.6638 28.4778L23.5544 32.1315C23.4238 32.3571 23.1875 32.4834 22.9444 32.4834Z" fill="#0CA575"/>
<path d="M25.0553 32.4834C24.8122 32.4834 24.5759 32.3571 24.4459 32.1315L22.3366 28.4778C22.1422 28.1415 22.2578 27.7115 22.5941 27.5172C22.9303 27.3228 23.3603 27.4384 23.5547 27.7747L25.664 31.4284C25.8584 31.7647 25.7428 32.1946 25.4065 32.389C25.2953 32.4528 25.174 32.4834 25.0553 32.4834Z" fill="#0CA575"/>
</g>
</g>
<defs>
<clipPath id="clip0_1_24737">
<rect width="24" height="24" fill="white" transform="translate(12 12)"/>
</clipPath>
</defs>
</svg>
