<svg width="48" height="48" viewBox="0 0 48 48" fill="none" xmlns="http://www.w3.org/2000/svg">
<circle cx="24" cy="24" r="24" fill="#DCF4ED"/>
<g clip-path="url(#clip0_1_24768)">
<path d="M28.9105 35.9999H19.9192C18.0533 35.973 16.5228 34.5138 16.407 32.6518L15.3418 16.4489C15.3308 16.2118 15.4153 15.9797 15.5761 15.8052C15.7418 15.6241 15.9745 15.5182 16.2198 15.5127H32.6104C33.0955 15.5116 33.4895 15.904 33.4906 16.3886C33.4906 16.4089 33.4901 16.4292 33.4884 16.4489L32.4699 32.6518C32.3519 34.5319 30.7945 35.9977 28.9105 35.9999ZM17.2032 17.2683L18.1049 32.5464C18.1669 33.5024 18.9616 34.246 19.9197 34.2438H28.911C29.867 34.24 30.6584 33.4997 30.7259 32.5464L31.6742 17.327L17.2032 17.2683Z" fill="#0CA575"/>
<path d="M34.9514 17.2688H13.8781C13.3929 17.2688 13 16.8759 13 16.3908C13 15.9056 13.3929 15.5127 13.8781 15.5127H34.9514C35.4365 15.5127 35.8294 15.9056 35.8294 16.3908C35.8294 16.8759 35.4365 17.2688 34.9514 17.2688Z" fill="#0CA575"/>
<path d="M27.9269 17.2683H20.9025C20.4201 17.2623 20.0305 16.8727 20.0244 16.3903V14.2829C20.0551 13.035 21.0594 12.0307 22.3074 12H26.522C27.7925 12.0318 28.8055 13.0707 28.805 14.3417V16.3903C28.7989 16.8727 28.4093 17.2623 27.9269 17.2683ZM21.7805 15.5122H27.0489V14.3417C27.0489 14.0508 26.8129 13.8148 26.522 13.8148H22.3074C22.0165 13.8148 21.7805 14.0508 21.7805 14.3417V15.5122ZM27.9269 31.3172C27.4445 31.3112 27.0549 30.9215 27.0489 30.4392V21.0731C27.0489 20.5879 27.4418 20.195 27.9269 20.195C28.412 20.195 28.805 20.5879 28.805 21.0731V30.4392C28.7989 30.9215 28.4093 31.3112 27.9269 31.3172ZM20.9025 31.3172C20.4201 31.3112 20.0305 30.9215 20.0244 30.4392V21.0731C20.0244 20.5879 20.4173 20.195 20.9025 20.195C21.3876 20.195 21.7805 20.5879 21.7805 21.0731V30.4392C21.7745 30.9215 21.3849 31.3112 20.9025 31.3172ZM24.4147 31.3172C23.9323 31.3112 23.5427 30.9215 23.5366 30.4392V21.0731C23.5366 20.5879 23.9296 20.195 24.4147 20.195C24.8998 20.195 25.2927 20.5879 25.2927 21.0731V30.4392C25.2867 30.9215 24.8971 31.3112 24.4147 31.3172Z" fill="#0CA575"/>
</g>
<defs>
<clipPath id="clip0_1_24768">
<rect width="24" height="24" fill="white" transform="translate(12 12)"/>
</clipPath>
</defs>
</svg>
