<svg width="48" height="48" viewBox="0 0 48 48" fill="none" xmlns="http://www.w3.org/2000/svg">
<circle cx="24" cy="24" r="24" fill="#E6F1FE"/>
<path d="M26.8027 12.9346H23.9998V14.6864H25.9268V17.9856C25.9268 20.8834 23.5691 23.2411 20.6713 23.2411C17.7735 23.2411 15.4159 20.8835 15.4159 17.9857V14.6864H17.2845V12.9346H14.54C14.0562 12.9346 13.6641 13.3267 13.6641 13.8105V17.9857C13.6641 21.8496 16.8074 24.993 20.6714 24.993C24.5353 24.993 27.6787 21.8496 27.6787 17.9857V13.8105C27.6787 13.3267 27.2865 12.9346 26.8027 12.9346Z" fill="#3580DB"/>
<path d="M30.219 25.7221V29.8681C30.219 32.2831 28.2543 34.2477 25.8394 34.2477C23.4245 34.2477 21.4598 32.2831 21.4598 29.8681V24.1455H19.708V29.8681C19.708 33.2489 22.4584 35.9995 25.8394 35.9995C29.2201 35.9995 31.9708 33.2489 31.9708 29.8681V25.7221H30.219Z" fill="#3580DB"/>
<path d="M31.0945 20.0584C29.3071 20.0584 27.8533 21.5121 27.8533 23.2993C27.8533 25.0861 29.3071 26.5402 31.0942 26.5402C32.8814 26.5402 34.3351 25.0861 34.3354 23.2993C34.3354 21.5121 32.8814 20.0584 31.0945 20.0584ZM31.0942 24.7883C30.2729 24.7883 29.6049 24.1203 29.6049 23.2993C29.6049 22.4783 30.2729 21.8103 31.0942 21.8103C31.9152 21.8103 32.5833 22.4783 32.5833 23.2993C32.5833 24.1203 31.9152 24.7883 31.0942 24.7883ZM17.2548 12C16.771 12 16.3789 12.3921 16.3789 12.8759V14.7445C16.3789 15.2283 16.771 15.6204 17.2548 15.6204C17.7386 15.6204 18.1307 15.2283 18.1307 14.7445V12.8759C18.1307 12.3921 17.7386 12 17.2548 12ZM24.0285 12C23.5447 12 23.1526 12.3921 23.1526 12.8759V14.7445C23.1526 15.2283 23.5447 15.6204 24.0285 15.6204C24.5123 15.6204 24.9044 15.2283 24.9044 14.7445V12.8759C24.9044 12.3921 24.5123 12 24.0285 12Z" fill="#3580DB"/>
</svg>
