<svg width="48" height="48" viewBox="0 0 48 48" fill="none" xmlns="http://www.w3.org/2000/svg">
<circle cx="24" cy="24" r="24" fill="#FEF4E2"/>
<path d="M34.3941 35.0099C34.3933 32.8818 34.0965 31.2195 33.4871 29.9287C32.7015 28.2652 31.3959 27.2344 29.6066 26.8646L26.6143 26.3284V25.9717C27.597 25.3544 28.3317 24.4116 28.6901 23.3078C29.8922 23.1886 30.8332 22.2019 30.8332 21.0062C30.8324 20.695 30.7677 20.3871 30.6431 20.1019C30.5185 19.8166 30.3367 19.56 30.1088 19.3478L30.2398 18.6662C30.573 16.9352 29.4674 15.3842 28.2564 14.4508C27.8073 13.1379 26.7371 12.4727 25.0714 12.4727H22.9307C22.1688 12.4771 21.4163 12.6402 20.721 12.9518C20.0258 13.2633 19.4031 13.7164 18.8928 14.282C18.0133 15.2707 17.609 16.4973 17.7543 17.7357L17.9382 19.3052C17.6968 19.5181 17.5033 19.7799 17.3705 20.0731C17.2376 20.3664 17.1685 20.6845 17.1675 21.0064C17.1675 22.202 18.1085 23.1887 19.3106 23.308C19.669 24.4117 20.4037 25.3545 21.3864 25.9718V26.3285L18.4124 26.8613L18.3942 26.8648C16.6048 27.2344 15.2991 28.2652 14.5135 29.9288C13.9032 31.2214 13.6064 32.8866 13.6064 35.0194V35.5273H15.0127V35.0196C15.0127 30.9577 16.1518 28.8068 18.596 28.2599V31.931C18.1948 32.0941 17.8628 32.3915 17.6568 32.7724C17.4508 33.1533 17.3836 33.5939 17.4666 34.0189C17.5497 34.4439 17.7779 34.8268 18.1122 35.1021C18.4465 35.3773 18.8661 35.5278 19.2991 35.5278C19.7321 35.5278 20.1517 35.3773 20.486 35.1021C20.8202 34.8268 21.0484 34.4439 21.1315 34.0189C21.2146 33.5939 21.1474 33.1533 20.9414 32.7724C20.7354 32.3915 20.4034 32.0941 20.0022 31.931V28.005L21.6788 27.7046C21.9 28.1889 22.0901 28.6195 22.2507 28.983C22.5347 29.6267 22.74 30.0917 22.9257 30.4277C23.062 30.6744 23.3811 31.2523 23.9828 31.2544H23.986C24.5851 31.2544 24.9066 30.6819 25.044 30.4372C25.2311 30.1039 25.4384 29.6428 25.7253 29.0047C25.8913 28.6353 26.0882 28.1973 26.3181 27.7039L27.9613 27.9985V29.7797C27.3928 29.9348 26.8911 30.2722 26.5331 30.7402C26.1751 31.2082 25.9808 31.7808 25.98 32.37V34.8243C25.98 35.0108 26.0541 35.1896 26.1859 35.3215C26.3178 35.4533 26.4966 35.5274 26.6831 35.5274H28.0439V34.1212H27.3862V32.37C27.3882 32.0324 27.5238 31.7093 27.7633 31.4712C28.0027 31.2332 28.3267 31.0996 28.6643 31.0996C29.002 31.0996 29.3259 31.2332 29.5654 31.4712C29.8048 31.7093 29.9404 32.0324 29.9424 32.37V34.1212H29.2848V35.5274H30.6456C30.832 35.5274 31.0109 35.4533 31.1427 35.3215C31.2746 35.1896 31.3487 35.0108 31.3487 34.8243V32.37C31.3479 31.7808 31.1536 31.2082 30.7956 30.7402C30.4377 30.2723 29.9359 29.9348 29.3675 29.7797V28.2516C31.8372 28.785 32.988 30.937 32.988 35.0195V35.5177H34.3942V35.0099H34.3941ZM28.9276 20.2159C29.077 20.2869 29.2032 20.3987 29.2915 20.5385C29.3799 20.6784 29.4268 20.8403 29.4268 21.0057C29.4268 21.1711 29.3799 21.3331 29.2915 21.4729C29.2032 21.6127 29.077 21.7246 28.9276 21.7956V20.2159ZM19.073 21.7956C18.9236 21.7246 18.7974 21.6127 18.709 21.4729C18.6207 21.3331 18.5737 21.1711 18.5737 21.0057C18.5737 20.8403 18.6207 20.6783 18.709 20.5385C18.7974 20.3987 18.9236 20.2868 19.073 20.2159V21.7956ZM19.2991 34.1212C19.2079 34.1212 19.1188 34.0942 19.043 34.0435C18.9672 33.9929 18.9081 33.9209 18.8732 33.8367C18.8383 33.7524 18.8292 33.6598 18.847 33.5704C18.8647 33.4809 18.9086 33.3988 18.9731 33.3343C19.0376 33.2699 19.1197 33.226 19.2091 33.2082C19.2985 33.1904 19.3912 33.1995 19.4754 33.2344C19.5596 33.2693 19.6316 33.3284 19.6823 33.4042C19.7329 33.48 19.76 33.5691 19.76 33.6602C19.7598 33.7824 19.7112 33.8996 19.6248 33.986C19.5384 34.0724 19.4213 34.121 19.2991 34.1212ZM19.2062 18.043L19.151 17.572C19.0531 16.7376 19.3346 15.9013 19.9435 15.2167C20.3211 14.7984 20.7818 14.4634 21.2961 14.233C21.8104 14.0027 22.3671 13.8822 22.9307 13.879H25.0713C26.4631 13.879 26.8078 14.447 26.9728 15.0608C27.0153 15.2186 27.1114 15.3568 27.2447 15.4514C28.1728 16.1102 29.0838 17.231 28.8587 18.4008L28.8131 18.6381C28.6731 18.1453 28.3959 17.628 27.933 17.3886C27.3583 17.0903 26.6987 17.1253 26.0779 17.486C26.0422 17.5066 25.8907 17.5648 25.4362 17.4516C25.0233 17.3488 24.535 17.1497 24.018 16.939C22.7076 16.4046 21.2221 15.7994 20.139 16.5276C19.6766 16.8385 19.3676 17.3391 19.2062 18.043V18.043ZM25.208 26.7584C24.9017 27.4059 24.6485 27.9692 24.4423 28.4281C24.285 28.7777 24.1251 29.1336 23.9885 29.4158C23.8525 29.1303 23.6934 28.7696 23.537 28.4152C23.3363 27.9605 23.0898 27.4018 22.7926 26.7611V26.5743C23.5853 26.7742 24.4153 26.7742 25.208 26.5743V26.7584ZM24.0003 25.318C23.0666 25.3168 22.1715 24.9452 21.5114 24.2849C20.8513 23.6245 20.4801 22.7293 20.4793 21.7956V19.3945C20.4793 18.491 20.6371 17.8872 20.9236 17.6946C21.0281 17.6243 21.1684 17.5944 21.334 17.5944C21.9007 17.5944 22.7626 17.9457 23.4873 18.2413C24.7215 18.7443 25.8873 19.2195 26.7826 18.7031C27.0564 18.5437 27.2091 18.5994 27.2721 18.6301C27.3685 18.7217 27.5214 19.114 27.5214 19.3947V21.7958C27.5205 22.7294 27.1493 23.6246 26.4892 24.2849C25.8291 24.9453 24.934 25.3168 24.0003 25.318Z" fill="#F68E28"/>
</svg>
