<svg width="40" height="40" viewBox="0 0 40 40" fill="none" xmlns="http://www.w3.org/2000/svg">
<circle opacity="0.1" cx="20" cy="20" r="20" fill="white"/>
<circle cx="20" cy="20" r="16" fill="white"/>
<path fill-rule="evenodd" clip-rule="evenodd" d="M23.2933 14C24.1873 14 25.0473 14.3533 25.68 14.9873C26.3133 15.62 26.6673 16.4733 26.6673 17.3667V22.6333C26.6673 24.4933 25.154 26 23.2933 26H16.7073C14.8467 26 13.334 24.4933 13.334 22.6333V17.3667C13.334 15.5067 14.84 14 16.7073 14H23.2933ZM24.354 18.36L24.4073 18.3067C24.5667 18.1133 24.5667 17.8333 24.4 17.64C24.3073 17.5407 24.18 17.48 24.0473 17.4667C23.9073 17.4593 23.774 17.5067 23.6733 17.6L20.6673 20C20.2807 20.3207 19.7267 20.3207 19.334 20L16.334 17.6C16.1267 17.4467 15.84 17.4667 15.6673 17.6467C15.4873 17.8267 15.4673 18.1133 15.62 18.3133L15.7073 18.4L18.7407 20.7667C19.114 21.06 19.5667 21.22 20.0407 21.22C20.5133 21.22 20.974 21.06 21.3467 20.7667L24.354 18.36Z" fill="#3580DB"/>
</svg>
