<svg width="48" height="48" viewBox="0 0 48 48" fill="none" xmlns="http://www.w3.org/2000/svg">
<circle cx="24" cy="24" r="24" fill="#E6F1FE"/>
<g clip-path="url(#clip0_1_24615)">
<mask id="mask0_1_24615" style="mask-type:luminance" maskUnits="userSpaceOnUse" x="12" y="12" width="32" height="32">
<path d="M43.9987 43.999H12V12.0004H43.9987V43.999Z" fill="white"/>
</mask>
<g mask="url(#mask0_1_24615)">
<path d="M33.8863 18.5654C33.5207 18.5654 33.1601 18.4698 32.8351 18.2817L28.7759 15.938C28.2878 15.6562 27.9391 15.2012 27.7935 14.6575C27.6478 14.1131 27.7222 13.545 28.0041 13.0569C28.2859 12.5688 28.7409 12.2201 29.2846 12.0745C29.829 11.9288 30.3971 12.0032 30.8852 12.2851L34.9444 14.6287C35.4325 14.9106 35.7812 15.3656 35.9275 15.9093C36.0731 16.4536 35.9987 17.0217 35.7169 17.5098C35.435 17.998 34.9807 18.3467 34.4363 18.4923C34.2538 18.5411 34.0694 18.5654 33.8863 18.5654ZM29.8315 13.4081C29.5884 13.4081 29.3515 13.5344 29.2215 13.7594C29.1278 13.9219 29.1028 14.1112 29.1515 14.2931C29.2003 14.4744 29.3165 14.6262 29.479 14.72L33.5382 17.0636C33.7007 17.1574 33.8901 17.1824 34.0719 17.1336C34.2532 17.0849 34.4051 16.9686 34.4988 16.8061C34.5925 16.6436 34.6175 16.4536 34.5694 16.2724C34.5207 16.0912 34.4044 15.9393 34.2419 15.8455L30.1827 13.5019C30.0715 13.4388 29.9509 13.4081 29.8315 13.4081Z" fill="#3580DB"/>
<path d="M24.1685 33.5205C23.8111 33.5205 23.4486 33.4299 23.1173 33.2386L20.6818 31.8325C20.1937 31.5506 19.845 31.0956 19.6987 30.5519C19.5531 30.0075 19.6275 29.4394 19.9093 28.9513L26.2372 17.9912C26.4316 17.6549 26.8616 17.5393 27.1978 17.7337L32.0688 20.546C32.2301 20.6392 32.3482 20.7929 32.3963 20.9729C32.4444 21.1529 32.4194 21.3448 32.3263 21.5066L25.9985 32.4668C25.6085 33.1424 24.8979 33.5205 24.1685 33.5205ZM27.104 19.303L21.1274 29.6544C21.0337 29.8169 21.0087 30.0063 21.0574 30.1881C21.1062 30.3694 21.2224 30.5213 21.3849 30.615L23.8204 32.0212C24.156 32.2149 24.5873 32.0993 24.781 31.7637L30.7576 21.4123L27.104 19.303Z" fill="#3580DB"/>
<path d="M30.5003 21.1543C30.3778 21.1543 30.2565 21.1224 30.1484 21.0599L27.7129 19.6537C27.3767 19.4594 27.2617 19.0294 27.4554 18.6931L29.3303 15.4458C29.4235 15.2845 29.5772 15.1664 29.7572 15.1183C29.9372 15.0702 30.1291 15.0952 30.2909 15.1883L32.7264 16.5945C33.0627 16.7889 33.1777 17.2188 32.9839 17.5551L31.109 20.8024C31.0159 20.9637 30.8621 21.0818 30.6822 21.1299C30.6222 21.1462 30.5609 21.1543 30.5003 21.1543ZM29.0247 18.7875L30.2428 19.4906L31.4146 17.4607L30.1965 16.7576L29.0247 18.7875Z" fill="#3580DB"/>
<path d="M22.4378 29.4912C22.3185 29.4912 22.1978 29.4606 22.0872 29.3968L20.8692 28.6937C20.5329 28.4994 20.4179 28.0694 20.6117 27.7332C20.806 27.3969 21.236 27.2813 21.5722 27.4757L22.7903 28.1788C23.1266 28.3731 23.2416 28.8031 23.0478 29.1394C22.9172 29.365 22.681 29.4912 22.4378 29.4912Z" fill="#3580DB"/>
<path d="M24.6559 27.5244C24.5366 27.5244 24.4159 27.4938 24.3053 27.43L22.2754 26.2582C21.9392 26.0638 21.8242 25.6339 22.0179 25.2976C22.2123 24.9614 22.6423 24.8458 22.9785 25.0401L25.0084 26.212C25.3446 26.4063 25.4596 26.8363 25.2659 27.1726C25.1353 27.3982 24.899 27.5244 24.6559 27.5244Z" fill="#3580DB"/>
<path d="M28.9043 26.7285C28.7849 26.7285 28.6643 26.6979 28.5537 26.6341L23.6826 23.8218C23.3464 23.6274 23.2314 23.1974 23.4251 22.8612C23.6195 22.5249 24.0495 22.4093 24.3857 22.6037L29.2568 25.4161C29.593 25.6104 29.708 26.0404 29.5143 26.3767C29.3836 26.6029 29.1474 26.7285 28.9043 26.7285Z" fill="#3580DB"/>
<path d="M27.4684 22.6523C27.3491 22.6523 27.2284 22.6217 27.1178 22.558L25.0879 21.3861C24.7517 21.1918 24.6367 20.7618 24.8304 20.4256C25.0248 20.0893 25.4548 19.9737 25.791 20.1681L27.8209 21.3399C28.1571 21.5343 28.2721 21.9642 28.0784 22.3005C27.9478 22.5267 27.7115 22.6523 27.4684 22.6523Z" fill="#3580DB"/>
<path d="M20.3037 36.001C20.1844 36.001 20.0638 35.9704 19.9531 35.9066C19.6169 35.7122 19.5019 35.2823 19.6956 34.946L21.6418 31.5749C21.8362 31.2387 22.2662 31.1231 22.6024 31.3174C22.9386 31.5118 23.0536 31.9418 22.8599 32.278L20.9137 35.6491C20.7831 35.8747 20.5462 36.001 20.3037 36.001Z" fill="#3580DB"/>
<path d="M32.9345 22.5605C32.8152 22.5605 32.6945 22.5299 32.5839 22.4662L25.2774 18.2476C24.9411 18.0532 24.8261 17.6233 25.0199 17.287C25.2142 16.9508 25.6442 16.8352 25.9805 17.0295L33.287 21.2481C33.6233 21.4425 33.7383 21.8725 33.5445 22.2087C33.4139 22.4343 33.1777 22.5605 32.9345 22.5605Z" fill="#3580DB"/>
<path d="M17.8591 23.7207C14.6286 23.7207 12 21.0921 12 17.8616C12 14.6311 14.6286 12.0024 17.8591 12.0024C21.0896 12.0024 23.7183 14.6311 23.7183 17.8616C23.7183 21.0921 21.0896 23.7207 17.8591 23.7207ZM17.8591 13.4086C15.4036 13.4086 13.4062 15.406 13.4062 17.8616C13.4062 20.3171 15.4036 22.3145 17.8591 22.3145C20.3147 22.3145 22.3121 20.3171 22.3121 17.8616C22.3121 15.406 20.3147 13.4086 17.8591 13.4086Z" fill="#3580DB"/>
<path d="M16.6989 20.2217C16.5189 20.2217 16.3389 20.1529 16.2021 20.0154L15.2077 19.0211C14.9334 18.7467 14.9334 18.3011 15.2077 18.0268C15.4821 17.7524 15.9277 17.7524 16.2021 18.0268L16.6995 18.5236L19.5169 15.7062C19.7913 15.4319 20.2369 15.4319 20.5113 15.7062C20.7856 15.9806 20.7856 16.4262 20.5113 16.7006L17.197 20.0148C17.0589 20.1529 16.8789 20.2217 16.6989 20.2217Z" fill="#3580DB"/>
</g>
</g>
<defs>
<clipPath id="clip0_1_24615">
<rect width="24" height="24" fill="white" transform="translate(12 12)"/>
</clipPath>
</defs>
</svg>
