<svg width="40" height="40" viewBox="0 0 40 40" fill="none" xmlns="http://www.w3.org/2000/svg">
<circle opacity="0.1" cx="20" cy="20" r="20" fill="white"/>
<circle cx="20" cy="20" r="16" fill="white"/>
<path fill-rule="evenodd" clip-rule="evenodd" d="M21.5702 13.3383C21.4215 13.317 21.2721 13.3609 21.1533 13.4555C21.0311 13.5515 20.9548 13.6901 20.9382 13.8453C20.903 14.1591 21.1294 14.4429 21.4428 14.4782C23.6039 14.7193 25.2836 16.4029 25.5266 18.5707C25.5592 18.8612 25.8028 19.0804 26.0936 19.0804C26.1155 19.0804 26.1368 19.079 26.1587 19.0764C26.3107 19.0597 26.4462 18.9844 26.5418 18.8645C26.6367 18.7446 26.6799 18.5954 26.6626 18.4428C26.3599 15.738 24.2665 13.6388 21.5702 13.3383ZM21.6117 15.6596C21.2944 15.601 21.0029 15.8035 20.9425 16.1133C20.8821 16.4231 21.0852 16.7256 21.394 16.7862C22.3235 16.9674 23.0412 17.6869 23.2231 18.6196V18.6203C23.2749 18.8887 23.5113 19.0839 23.7835 19.0839C23.82 19.0839 23.8565 19.0806 23.8937 19.074C24.2024 19.012 24.4056 18.7102 24.3452 18.3998C24.0736 17.0067 23.0014 15.9308 21.6117 15.6596ZM22.6664 22.06C22.9674 21.8865 23.3073 21.6905 23.7361 21.7817C24.1245 21.8636 25.4484 22.9382 25.8109 23.3106C26.0486 23.5545 26.1807 23.8063 26.2013 24.0581C26.2372 25.0461 24.8947 26.174 24.6504 26.3146C24.3257 26.5484 23.9479 26.6663 23.5237 26.6663C23.0901 26.6663 22.6068 26.5431 22.0796 26.2973C19.2194 25.1034 14.85 20.8204 13.6948 17.9823C13.2154 16.9257 13.2121 16.0543 13.6868 15.3994C13.876 15.0923 14.9549 13.8085 15.921 13.8491C16.1779 13.8711 16.4275 14.003 16.6725 14.2429C17.043 14.606 18.0907 15.9337 18.1717 16.3234C18.2613 16.7565 18.0648 17.1009 17.8902 17.4034C17.8529 17.4684 17.8028 17.5455 17.7478 17.6301C17.5391 17.9509 17.2614 18.3779 17.3597 18.6505C18.0641 20.38 19.6914 21.889 21.4217 22.5978C21.6892 22.695 22.116 22.4154 22.4358 22.2058C22.5191 22.1512 22.5951 22.1013 22.6592 22.0642L22.6664 22.06Z" fill="#3580DB"/>
</svg>
