<svg width="68" height="68" viewBox="0 0 68 68" fill="none" xmlns="http://www.w3.org/2000/svg">
<circle opacity="0.15" cx="34" cy="34" r="34" fill="#FF5555"/>
<circle cx="34" cy="34" r="24" fill="#FF5555"/>
<path d="M32.283 35.7175C30.374 33.8085 29.943 31.8995 29.8458 31.1347C29.8186 30.9232 29.8914 30.7111 30.0427 30.5609L31.5875 29.0167C31.8148 28.7896 31.8551 28.4357 31.6848 28.1633L29.2251 24.3439C29.0366 24.0422 28.6497 23.9334 28.3316 24.0925L24.3829 25.9522C24.1257 26.0788 23.9744 26.3521 24.0036 26.6374C24.2105 28.6029 25.0674 33.4347 29.8158 38.1834C34.5641 42.9321 39.3952 43.7887 41.3618 43.9956C41.647 44.0248 41.9203 43.8735 42.047 43.6163L43.9067 39.6676C44.0652 39.3502 43.9571 38.9643 43.6567 38.7755L39.8373 36.3165C39.5651 36.146 39.2111 36.186 38.9838 36.4131L37.4397 37.9579C37.2894 38.1092 37.0774 38.182 36.8659 38.1548C36.101 38.0576 34.192 37.6265 32.283 35.7175Z" fill="white"/>
<path d="M39.8643 34.6907C39.4834 34.6907 39.1747 34.3819 39.1747 34.0011C39.1714 31.1457 36.8575 28.8318 34.0022 28.8286C33.6213 28.8286 33.3125 28.5198 33.3125 28.1389C33.3125 27.758 33.6213 27.4492 34.0022 27.4492C37.619 27.4532 40.55 30.3842 40.554 34.0011C40.554 34.3819 40.2452 34.6907 39.8643 34.6907Z" fill="white"/>
<path d="M43.3127 34.6898C42.9318 34.6898 42.623 34.3811 42.623 34.0002C42.6177 29.2412 38.7611 25.3847 34.0022 25.3793C33.6213 25.3793 33.3125 25.0706 33.3125 24.6897C33.3125 24.3088 33.6213 24 34.0022 24C39.5226 24.0061 43.9963 28.4798 44.0023 34.0002C44.0023 34.1831 43.9297 34.3585 43.8003 34.4878C43.671 34.6172 43.4956 34.6898 43.3127 34.6898Z" fill="white"/>
</svg>
