<svg width="48" height="48" viewBox="0 0 48 48" fill="none" xmlns="http://www.w3.org/2000/svg">
<circle cx="24" cy="24" r="24" fill="#FEF4E2"/>
<g clip-path="url(#clip0_5021_7872)">
<path d="M20.6582 32.0227C20.4782 32.0227 20.2982 31.9543 20.1609 31.817C19.8862 31.5423 19.8862 31.097 20.1609 30.8227L29.6071 21.376L26.624 18.3929L17.1778 27.8391C16.9031 28.1138 16.4578 28.1138 16.1836 27.8391C15.9089 27.5645 15.9089 27.1191 16.1836 26.8449L26.1271 16.9013C26.4018 16.6266 26.8471 16.6266 27.1214 16.9013L31.0987 20.8787C31.3734 21.1534 31.3734 21.5987 31.0987 21.8729L21.1551 31.8165C21.0178 31.9538 20.8378 32.0227 20.6582 32.0227Z" fill="#F68E28"/>
<path d="M29.6068 21.0845C29.4268 21.0845 29.2468 21.0161 29.1095 20.8787C28.8348 20.6041 28.8348 20.1587 29.1095 19.8845L30.6011 18.393L29.6068 17.3988L28.1153 18.8903C27.8406 19.165 27.3957 19.165 27.1211 18.8903C26.8464 18.6156 26.8464 18.1703 27.1211 17.8961L29.11 15.9072C29.3846 15.6325 29.83 15.6325 30.1042 15.9072L32.0931 17.8961C32.2248 18.0278 32.2989 18.2069 32.2989 18.3934C32.2989 18.58 32.2248 18.7586 32.0931 18.8908L30.1042 20.8797C29.9668 21.0161 29.7868 21.0845 29.6068 21.0845Z" fill="#F68E28"/>
<mask id="mask0_5021_7872" style="mask-type:luminance" maskUnits="userSpaceOnUse" x="12" y="12" width="32" height="32">
<path d="M43.9999 44H12V12.0001H43.9999V44Z" fill="white"/>
</mask>
<g mask="url(#mask0_5021_7872)">
<path d="M30.6011 18.1016C30.4211 18.1016 30.2411 18.0328 30.1042 17.8953C29.8298 17.6209 29.8298 17.1753 30.1042 16.9009L34.7992 12.206C35.0736 11.9316 35.5192 11.9316 35.7936 12.206C36.068 12.4803 36.068 12.926 35.7936 13.2003L31.0986 17.8953C30.9611 18.0328 30.7811 18.1016 30.6011 18.1016Z" fill="#F68E28"/>
<path d="M13.6968 33.0166C13.5168 33.0166 13.3368 32.9479 13.1999 32.8104C12.9255 32.536 12.9255 32.0904 13.1999 31.816L17.1774 27.8385C17.4518 27.5641 17.8974 27.5641 18.1718 27.8385C18.4462 28.1129 18.4462 28.5585 18.1718 28.8329L14.1943 32.8104C14.0568 32.9479 13.8768 33.0166 13.6968 33.0166Z" fill="#F68E28"/>
<path d="M15.6861 35.0059C15.5061 35.0059 15.3261 34.9371 15.1892 34.7996C14.9148 34.5252 14.9148 34.0796 15.1892 33.8052L19.1667 29.8277C19.441 29.5534 19.8867 29.5534 20.161 29.8277C20.4354 30.1021 20.4354 30.5477 20.161 30.8221L16.1836 34.7996C16.0461 34.9371 15.8661 35.0059 15.6861 35.0059Z" fill="#F68E28"/>
<path d="M16.6801 36C16.5001 36 16.3201 35.9312 16.1833 35.7938L12.2058 31.8163C11.9314 31.5419 11.9314 31.0963 12.2058 30.8219C12.4802 30.5475 12.9258 30.5475 13.2002 30.8219L17.1776 34.7994C17.452 35.0738 17.452 35.5194 17.1776 35.7938C17.0401 35.9312 16.8601 36 16.6801 36Z" fill="#F68E28"/>
</g>
<path d="M21.652 33.0168C21.472 33.0168 21.292 32.9484 21.1547 32.811L15.1884 26.8448C14.9137 26.5701 14.9137 26.1248 15.1884 25.8505C15.4631 25.5759 15.908 25.5759 16.1827 25.8505L22.1489 31.8168C22.4236 32.0915 22.4236 32.5368 22.1489 32.811C22.012 32.9479 21.832 33.0168 21.652 33.0168Z" fill="#F68E28"/>
<path d="M22.6465 30.0338C22.4665 30.0338 22.2865 29.9653 22.1492 29.828L18.1718 25.8506C17.8971 25.5759 17.8971 25.1306 18.1718 24.8564C18.4465 24.5817 18.8918 24.5817 19.1661 24.8564L23.1434 28.8338C23.4181 29.1084 23.4181 29.5537 23.1434 29.828C23.0065 29.9653 22.8265 30.0338 22.6465 30.0338Z" fill="#F68E28"/>
<path d="M21.6527 25.0614C21.4727 25.0614 21.2927 24.9929 21.1553 24.8556L20.1611 23.8614C19.8864 23.5867 19.8864 23.1414 20.1611 22.8671C20.4358 22.5925 20.8811 22.5925 21.1553 22.8671L22.1495 23.8614C22.4242 24.1361 22.4242 24.5814 22.1495 24.8556C22.0127 24.9929 21.8327 25.0614 21.6527 25.0614Z" fill="#F68E28"/>
<path d="M23.6409 23.0731C23.4609 23.0731 23.2809 23.0046 23.1436 22.8673L22.1494 21.8731C21.8747 21.5984 21.8747 21.1531 22.1494 20.8789C22.4241 20.6042 22.8694 20.6042 23.1436 20.8789L24.1378 21.8731C24.4125 22.1478 24.4125 22.5931 24.1378 22.8673C24.0005 23.0042 23.8205 23.0731 23.6409 23.0731Z" fill="#F68E28"/>
<path d="M25.6302 21.0838C25.4502 21.0838 25.2702 21.0154 25.1329 20.878L24.1386 19.8838C23.8639 19.6091 23.8639 19.1638 24.1386 18.8896C24.4133 18.6149 24.8586 18.6149 25.1329 18.8896L26.1271 19.8838C26.4018 20.1585 26.4018 20.6038 26.1271 20.878C25.9902 21.0154 25.8102 21.0838 25.6302 21.0838Z" fill="#F68E28"/>
<mask id="mask1_5021_7872" style="mask-type:luminance" maskUnits="userSpaceOnUse" x="12" y="12" width="32" height="32">
<path d="M43.9999 44H12V12.0001H43.9999V44Z" fill="white"/>
</mask>
<g mask="url(#mask1_5021_7872)">
<path d="M35.2965 36H29.6715C29.2834 36 28.9684 35.685 28.9684 35.2969V30.9925C28.9684 30.15 29.3409 29.3588 29.9909 28.8219C30.2265 28.6275 30.354 28.3575 30.3728 28.2644C30.354 28.1694 30.2246 27.8925 29.9809 27.6988C29.3371 27.1875 28.9684 26.4225 28.9678 25.6006V25.4532C28.9678 25.065 29.2828 24.75 29.6709 24.75H35.2959C35.684 24.75 35.999 25.065 35.999 25.4532V25.57C35.9984 26.4025 35.6271 27.18 34.9809 27.7044C34.7421 27.8975 34.6134 28.1706 34.594 28.265C34.6134 28.3588 34.7409 28.6281 34.9759 28.8219C35.6259 29.3588 35.9984 30.1494 35.999 30.9925V35.2969C35.9996 35.685 35.6846 36 35.2965 36ZM30.3746 34.5938H34.5934V30.9925C34.5934 30.5713 34.4065 30.175 34.0815 29.9069C33.5553 29.4725 33.1871 28.7975 33.1871 28.2663C33.1871 27.7263 33.5609 27.0463 34.0959 26.6125C34.2509 26.4869 34.374 26.3313 34.4584 26.1569H30.5015C30.5834 26.3263 30.704 26.4775 30.8565 26.5988C31.4009 27.0313 31.7809 27.7169 31.7809 28.2663C31.7809 28.7981 31.4128 29.4731 30.8859 29.9075C30.5609 30.1756 30.3746 30.5713 30.3746 30.9931V34.5938Z" fill="#F68E28"/>
<path d="M35.2969 33.1875H29.6719C29.2837 33.1875 28.9688 32.8725 28.9688 32.4844C28.9688 32.0963 29.2837 31.7813 29.6719 31.7813H35.2969C35.685 31.7813 36 32.0963 36 32.4844C36 32.8725 35.685 33.1875 35.2969 33.1875Z" fill="#F68E28"/>
</g>
</g>
<defs>
<clipPath id="clip0_5021_7872">
<rect width="24" height="24" fill="white" transform="translate(12 12)"/>
</clipPath>
</defs>
</svg>
