<svg width="36" height="36" viewBox="0 0 36 36" fill="none" xmlns="http://www.w3.org/2000/svg">
<g clip-path="url(#clip0_1_23085)">
<path d="M18 36C27.9411 36 36 27.9411 36 18C36 8.05887 27.9411 0 18 0C8.05887 0 0 8.05887 0 18C0 27.9411 8.05887 36 18 36Z" fill="#55ACEE"/>
<path d="M29.0248 12.9379C28.2373 13.2824 27.4076 13.5145 26.5568 13.6129C27.4568 13.0785 28.1248 12.2277 28.4482 11.2363C27.6045 11.7355 26.6764 12.0871 25.7131 12.277C24.8975 11.4121 23.7584 10.9199 22.5701 10.9199C20.1936 10.9199 18.267 12.8465 18.267 15.223C18.267 15.5605 18.3021 15.891 18.3795 16.2004C14.8006 16.0176 11.6365 14.309 9.51309 11.7074C9.1334 12.3613 8.92949 13.1137 8.92949 13.873C8.92949 15.3637 9.68887 16.6855 10.842 17.452C10.16 17.4309 9.49199 17.248 8.89434 16.9105V16.9668C8.89434 19.048 10.3779 20.7918 12.3467 21.1855C11.974 21.284 11.5943 21.3402 11.2146 21.3332C10.9334 21.3332 10.6662 21.3051 10.4061 21.2559C10.9545 22.9645 12.5436 24.209 14.4279 24.2441C12.9021 25.4395 11.0248 26.0863 9.08418 26.0863C8.73965 26.0863 8.39512 26.0652 8.05762 26.023C10.0264 27.2887 12.3115 27.9566 14.6529 27.9566C22.5701 27.9566 26.8943 21.4035 26.8943 15.7152C26.8943 15.5254 26.8873 15.3426 26.8803 15.1598C27.724 14.5551 28.4482 13.8027 29.0248 12.9379Z" fill="white"/>
</g>
<defs>
<clipPath id="clip0_1_23085">
<rect width="36" height="36" fill="white"/>
</clipPath>
</defs>
</svg>
