<svg width="36" height="36" viewBox="0 0 36 36" fill="none" xmlns="http://www.w3.org/2000/svg">
<g clip-path="url(#clip0_1_23093)">
<path d="M18 36C27.9411 36 36 27.9411 36 18C36 8.05888 27.9411 0 18 0C8.05888 0 0 8.05888 0 18C0 27.9411 8.05888 36 18 36Z" fill="#F20000"/>
<path d="M26.5785 13.6709C26.2185 12.553 25.0272 11.8922 23.9211 11.7382C19.9786 11.319 16.0026 11.319 12.0601 11.7382C10.9635 11.8922 9.77218 12.5625 9.41218 13.6709C8.85089 16.5307 8.85089 19.4724 9.41218 22.3322C9.78166 23.4477 10.973 24.1109 12.079 24.2648C16.0217 24.6817 19.9974 24.6817 23.9401 24.2648C25.0367 24.1109 26.228 23.4382 26.588 22.3322C27.1461 19.4717 27.1429 16.5301 26.5785 13.6709ZM15.8472 21.4488V14.5519L21.4627 18.0003C19.5703 19.1632 17.7324 20.2953 15.8472 21.4488Z" fill="white"/>
</g>
<defs>
<clipPath id="clip0_1_23093">
<rect width="36" height="36" fill="white"/>
</clipPath>
</defs>
</svg>
